STARTFONT 2.1
FONT -Monotype-Bookman Old Style-Bold-I-Normal--17-120-100-100-P-97-iso8859-4
SIZE 12 100 100
FONTBOUNDINGBOX 27 21 -3 -5

STARTPROPERTIES 24
FOUNDRY "Monotype"
FAMILY_NAME "Bookman Old Style"
WEIGHT_NAME "Bold"
SLANT "I"
SETWIDTH_NAME "Normal"
ADD_STYLE_NAME ""
PIXEL_SIZE 17
POINT_SIZE 120
RESOLUTION_X 100
RESOLUTION_Y 100
SPACING "P"
AVERAGE_WIDTH 97
CHARSET_REGISTRY "iso8859"
CHARSET_ENCODING "4"
FACE_NAME "Bookman Old Style Bold Italic ISO Latin4"
_DEC_DEVICE_FONTNAMES "PS=bookmanoldstyle-bit-lat4"
COPYRIGHT "Copyright (c) 1994 Monotype Typography Ltd."
CAP_HEIGHT 14
X_HEIGHT 11
WEIGHT 10
QUAD_WIDTH 11
DEFAULT_CHAR 160
FONT_DESCENT 5
FONT_ASCENT 17
ENDPROPERTIES

CHARS 191

STARTCHAR space
ENCODING 32
SWIDTH 340 0
DWIDTH 6 0
BBX 0 0 0 0
BITMAP
ENDCHAR

STARTCHAR exclam
ENCODING 33
SWIDTH 320 0
DWIDTH 5 0
BBX 5 13 2 0
BITMAP
10
38
38
38
38
70
70
60
60
00
E0
E0
E0
ENDCHAR

STARTCHAR quotedbl
ENCODING 34
SWIDTH 380 0
DWIDTH 6 0
BBX 5 5 3 7
BITMAP
90
D8
D8
D8
90
ENDCHAR

STARTCHAR numbersign
ENCODING 35
SWIDTH 600 0
DWIDTH 10 0
BBX 8 12 1 0
BITMAP
36
36
36
36
FF
36
6C
FF
6C
6C
6C
6C
ENDCHAR

STARTCHAR dollar
ENCODING 36
SWIDTH 680 0
DWIDTH 12 0
BBX 10 16 2 -2
BITMAP
0600
0600
0E80
3FC0
78C0
7040
7C00
3F00
0F80
83C0
C1C0
E3C0
FF80
5E00
1800
1800
ENDCHAR

STARTCHAR percent
ENCODING 37
SWIDTH 880 0
DWIDTH 15 0
BBX 14 12 2 0
BITMAP
3C20
6660
6640
C680
CD80
CD78
7ACC
06CC
058C
0998
1998
10F0
ENDCHAR

STARTCHAR ampersand
ENCODING 38
SWIDTH 980 0
DWIDTH 17 0
BBX 16 12 1 0
BITMAP
0780
0EC0
0CC0
0DC0
0FBE
3F3E
7398
E1B3
E1F3
F0E3
7FFE
1E3C
ENDCHAR

STARTCHAR quoteright
ENCODING 39
SWIDTH 320 0
DWIDTH 5 0
BBX 4 6 2 7
BITMAP
30
70
70
30
60
C0
ENDCHAR

STARTCHAR parenleft
ENCODING 40
SWIDTH 260 0
DWIDTH 4 0
BBX 6 17 1 -4
BITMAP
0C
18
38
30
70
60
60
E0
C0
C0
C0
C0
C0
C0
60
60
20
ENDCHAR

STARTCHAR parenright
ENCODING 41
SWIDTH 260 0
DWIDTH 4 0
BBX 6 17 0 -4
BITMAP
10
18
18
0C
0C
0C
0C
0C
0C
1C
18
18
38
30
70
60
C0
ENDCHAR

STARTCHAR asterisk
ENCODING 42
SWIDTH 460 0
DWIDTH 8 0
BBX 6 6 3 6
BITMAP
30
B0
EC
3C
D0
D8
ENDCHAR

STARTCHAR plus
ENCODING 43
SWIDTH 600 0
DWIDTH 10 0
BBX 8 8 2 2
BITMAP
18
18
18
FF
FF
18
18
18
ENDCHAR

STARTCHAR comma
ENCODING 44
SWIDTH 340 0
DWIDTH 6 0
BBX 4 6 1 -3
BITMAP
30
70
70
30
60
C0
ENDCHAR

STARTCHAR minus
ENCODING 45
SWIDTH 600 0
DWIDTH 10 0
BBX 9 2 2 5
BITMAP
FF80
FF80
ENDCHAR

STARTCHAR period
ENCODING 46
SWIDTH 340 0
DWIDTH 6 0
BBX 3 3 2 0
BITMAP
E0
E0
E0
ENDCHAR

STARTCHAR slash
ENCODING 47
SWIDTH 360 0
DWIDTH 6 0
BBX 10 17 -1 -4
BITMAP
00C0
0180
0180
0300
0300
0600
0600
0C00
0C00
1800
1800
3000
3000
6000
6000
C000
C000
ENDCHAR

STARTCHAR zero
ENCODING 48
SWIDTH 680 0
DWIDTH 12 0
BBX 11 12 2 0
BITMAP
0F80
1FC0
38E0
70E0
70E0
E0E0
E0E0
E1C0
E1C0
E380
7F00
3E00
ENDCHAR

STARTCHAR one
ENCODING 49
SWIDTH 680 0
DWIDTH 12 0
BBX 7 12 3 0
BITMAP
06
3E
3E
0E
0E
1C
1C
1C
38
38
FE
FE
ENDCHAR

STARTCHAR two
ENCODING 50
SWIDTH 680 0
DWIDTH 12 0
BBX 11 12 1 0
BITMAP
0F80
3FC0
31E0
60E0
60E0
01C0
0380
0F00
1CC0
78C0
FFC0
FF80
ENDCHAR

STARTCHAR three
ENCODING 51
SWIDTH 680 0
DWIDTH 12 0
BBX 11 12 1 0
BITMAP
0F80
1FC0
39E0
30E0
00E0
07C0
0780
01C0
C1C0
E1C0
7F80
1E00
ENDCHAR

STARTCHAR four
ENCODING 52
SWIDTH 680 0
DWIDTH 12 0
BBX 11 12 1 0
BITMAP
01C0
03C0
07C0
0DC0
19C0
3380
6380
FFE0
FFE0
0700
0700
0700
ENDCHAR

STARTCHAR five
ENCODING 53
SWIDTH 680 0
DWIDTH 12 0
BBX 11 12 2 0
BITMAP
1FE0
1FE0
3000
3000
3E00
7F80
03C0
01C0
C1C0
E3C0
7F80
1F00
ENDCHAR

STARTCHAR six
ENCODING 54
SWIDTH 680 0
DWIDTH 12 0
BBX 10 12 2 0
BITMAP
03C0
0FC0
3C00
7800
7700
FF80
F1C0
E1C0
E1C0
E3C0
7F80
3E00
ENDCHAR

STARTCHAR seven
ENCODING 55
SWIDTH 680 0
DWIDTH 12 0
BBX 11 12 3 0
BITMAP
7FE0
FFC0
C180
8300
0600
0E00
1C00
1800
3800
3800
7000
7000
ENDCHAR

STARTCHAR eight
ENCODING 56
SWIDTH 680 0
DWIDTH 12 0
BBX 10 12 2 0
BITMAP
1F00
3F80
71C0
71C0
79C0
3F80
7F80
E3C0
E1C0
E1C0
7F80
3F00
ENDCHAR

STARTCHAR nine
ENCODING 57
SWIDTH 680 0
DWIDTH 12 0
BBX 10 12 2 0
BITMAP
1F00
7F80
F1C0
E1C0
E1C0
E3C0
7FC0
3B80
0780
0F00
FC00
F000
ENDCHAR

STARTCHAR colon
ENCODING 58
SWIDTH 340 0
DWIDTH 6 0
BBX 4 8 2 0
BITMAP
70
70
70
00
00
E0
E0
E0
ENDCHAR

STARTCHAR semicolon
ENCODING 59
SWIDTH 340 0
DWIDTH 6 0
BBX 5 11 1 -3
BITMAP
38
38
38
00
00
30
70
70
30
60
C0
ENDCHAR

STARTCHAR less
ENCODING 60
SWIDTH 620 0
DWIDTH 11 0
BBX 9 9 2 1
BITMAP
0180
0700
1C00
7800
F000
3800
0E00
0380
0080
ENDCHAR

STARTCHAR equal
ENCODING 61
SWIDTH 600 0
DWIDTH 10 0
BBX 9 5 2 3
BITMAP
FF80
FF80
0000
FF80
FF80
ENDCHAR

STARTCHAR greater
ENCODING 62
SWIDTH 620 0
DWIDTH 11 0
BBX 9 9 2 1
BITMAP
8000
E000
3800
0E00
0780
0F00
1C00
7000
C000
ENDCHAR

STARTCHAR question
ENCODING 63
SWIDTH 620 0
DWIDTH 11 0
BBX 9 13 3 0
BITMAP
3C00
FF00
E780
4380
0380
0780
7F00
7E00
6000
0000
E000
E000
E000
ENDCHAR

STARTCHAR at
ENCODING 64
SWIDTH 780 0
DWIDTH 14 0
BBX 14 16 0 -4
BITMAP
07E0
1810
2008
2004
4364
86C4
8CC4
8CC4
99C4
9B88
9DB4
48C4
4008
2018
1860
0780
ENDCHAR

STARTCHAR A
ENCODING 65
SWIDTH 720 0
DWIDTH 12 0
BBX 12 12 0 0
BITMAP
0380
0380
0780
0D80
0DC0
19C0
1FC0
3FC0
30E0
60E0
F1F0
F1F0
ENDCHAR

STARTCHAR B
ENCODING 66
SWIDTH 720 0
DWIDTH 12 0
BBX 13 12 0 0
BITMAP
3FC0
3FF0
1C78
1C38
3870
3FC0
3FE0
3870
7070
70F0
FFE0
FF80
ENDCHAR

STARTCHAR C
ENCODING 67
SWIDTH 700 0
DWIDTH 12 0
BBX 11 12 1 0
BITMAP
0F60
3FE0
78E0
7060
7020
E000
E000
E000
E0C0
71C0
7F80
1E00
ENDCHAR

STARTCHAR D
ENCODING 68
SWIDTH 760 0
DWIDTH 13 0
BBX 13 12 1 0
BITMAP
3FC0
3FF0
1C78
1C38
3838
3838
3838
3838
7070
70F0
FFE0
FF80
ENDCHAR

STARTCHAR E
ENCODING 69
SWIDTH 720 0
DWIDTH 12 0
BBX 13 12 1 0
BITMAP
3FF0
3FF8
1C38
1C98
3980
3F80
3F00
3900
7030
7070
FFF0
FFE0
ENDCHAR

STARTCHAR F
ENCODING 70
SWIDTH 660 0
DWIDTH 11 0
BBX 12 12 1 0
BITMAP
3FE0
3FF0
1C70
1CB0
3980
3F80
3F00
3900
7000
7000
F800
F800
ENDCHAR

STARTCHAR G
ENCODING 71
SWIDTH 760 0
DWIDTH 13 0
BBX 12 12 2 0
BITMAP
0F60
3FE0
7860
7020
7000
E1F0
E1F0
E0E0
E0C0
71C0
7FC0
1EC0
ENDCHAR

STARTCHAR H
ENCODING 72
SWIDTH 800 0
DWIDTH 14 0
BBX 14 12 1 0
BITMAP
3E7C
3E7C
1C38
1C38
3870
3FF0
3FF0
3870
70E0
70E0
F9F0
F9F0
ENDCHAR

STARTCHAR I
ENCODING 73
SWIDTH 380 0
DWIDTH 7 0
BBX 7 12 1 0
BITMAP
3E
3E
1C
1C
38
38
38
38
70
70
F8
F8
ENDCHAR

STARTCHAR J
ENCODING 74
SWIDTH 620 0
DWIDTH 11 0
BBX 11 12 1 0
BITMAP
03E0
03E0
01C0
01C0
0380
0380
0380
C300
E700
E700
7E00
3C00
ENDCHAR

STARTCHAR K
ENCODING 75
SWIDTH 780 0
DWIDTH 13 0
BBX 14 12 1 0
BITMAP
3EFC
3EFC
1C70
1CE0
3980
3B80
3FC0
39C0
70E0
70E0
F9F8
F9F8
ENDCHAR

STARTCHAR L
ENCODING 76
SWIDTH 640 0
DWIDTH 11 0
BBX 11 12 1 0
BITMAP
3E00
3E00
1C00
1C00
3800
3800
3800
3800
7060
70E0
FFE0
FFC0
ENDCHAR

STARTCHAR M
ENCODING 77
SWIDTH 860 0
DWIDTH 15 0
BBX 16 12 1 0
BITMAP
3E3F
3E3F
1E6E
1E6E
36DC
36DC
379C
379C
6738
6738
F67C
F67C
ENDCHAR

STARTCHAR N
ENCODING 78
SWIDTH 740 0
DWIDTH 13 0
BBX 13 12 1 0
BITMAP
3E78
3E78
1E30
1F30
3760
33E0
33E0
33E0
61E0
61C0
F0C0
F0C0
ENDCHAR

STARTCHAR O
ENCODING 79
SWIDTH 760 0
DWIDTH 13 0
BBX 12 12 2 0
BITMAP
0F80
3FC0
78E0
7060
F070
E070
E070
E0F0
60E0
71E0
3FC0
1F00
ENDCHAR

STARTCHAR P
ENCODING 80
SWIDTH 640 0
DWIDTH 11 0
BBX 11 12 1 0
BITMAP
3FC0
3FE0
1CE0
1CE0
39E0
3FC0
3F00
3800
7000
7000
F800
F800
ENDCHAR

STARTCHAR Q
ENCODING 81
SWIDTH 760 0
DWIDTH 13 0
BBX 12 15 2 -3
BITMAP
0F80
3FC0
78E0
7060
F070
E070
E070
E0F0
60E0
71E0
3FC0
1F00
1C00
0D80
0700
ENDCHAR

STARTCHAR R
ENCODING 82
SWIDTH 740 0
DWIDTH 13 0
BBX 12 12 1 0
BITMAP
3FE0
3FF0
1C70
1C70
38F0
3FE0
3F80
3B80
73C0
71C0
F8F0
F8F0
ENDCHAR

STARTCHAR S
ENCODING 83
SWIDTH 700 0
DWIDTH 12 0
BBX 12 12 1 0
BITMAP
0FB0
3FF0
7860
7060
7C00
3F80
0FC0
01E0
60E0
61E0
FFC0
DF00
ENDCHAR

STARTCHAR T
ENCODING 84
SWIDTH 700 0
DWIDTH 12 0
BBX 13 12 1 0
BITMAP
7FF0
7FF0
E738
C718
0E00
0E00
0E00
0E00
1C00
1C00
3E00
3E00
ENDCHAR

STARTCHAR U
ENCODING 85
SWIDTH 740 0
DWIDTH 13 0
BBX 13 12 1 0
BITMAP
7C78
7C78
3830
3830
7030
7060
7060
E060
E0C0
E1C0
7F80
3E00
ENDCHAR

STARTCHAR V
ENCODING 86
SWIDTH 660 0
DWIDTH 11 0
BBX 11 12 2 0
BITMAP
F9E0
F9E0
70C0
7180
7180
3B00
3B00
3E00
1E00
1C00
1C00
1800
ENDCHAR

STARTCHAR W
ENCODING 87
SWIDTH 1000 0
DWIDTH 17 0
BBX 17 12 2 0
BITMAP
F9E780
F9E780
70C300
70C600
71C600
39CC00
3BEC00
3EF800
1EF800
1CF000
0C6000
0C6000
ENDCHAR

STARTCHAR X
ENCODING 88
SWIDTH 740 0
DWIDTH 13 0
BBX 15 12 0 0
BITMAP
1F3E
1F3C
0E18
0730
0760
03C0
07C0
0DC0
18E0
30E0
F9F0
F9F0
ENDCHAR

STARTCHAR Y
ENCODING 89
SWIDTH 660 0
DWIDTH 10 0
BBX 10 12 2 0
BITMAP
FBC0
FBC0
7380
7700
7600
3C00
3C00
3800
7000
7000
F800
F800
ENDCHAR

STARTCHAR Z
ENCODING 90
SWIDTH 680 0
DWIDTH 12 0
BBX 12 12 1 0
BITMAP
1FF0
3FF0
38E0
31C0
0380
0700
0E00
1C00
3860
70E0
FFE0
FFC0
ENDCHAR

STARTCHAR bracketleft
ENCODING 91
SWIDTH 260 0
DWIDTH 4 0
BBX 7 16 0 -4
BITMAP
1E
1E
18
18
38
30
30
70
60
60
60
E0
C0
C0
F0
F0
ENDCHAR

STARTCHAR backslash
ENCODING 92
SWIDTH 580 0
DWIDTH 10 0
BBX 10 17 1 -4
BITMAP
C000
C000
6000
6000
3000
3000
1800
1800
0C00
0C00
0600
0600
0300
0300
0180
0180
00C0
ENDCHAR

STARTCHAR bracketright
ENCODING 93
SWIDTH 260 0
DWIDTH 4 0
BBX 7 16 0 -4
BITMAP
1E
1E
06
06
0E
0C
0C
0C
1C
18
18
38
30
30
F0
F0
ENDCHAR

STARTCHAR asciicircum
ENCODING 94
SWIDTH 620 0
DWIDTH 10 0
BBX 9 7 1 5
BITMAP
1800
1C00
3C00
3600
6600
6300
C380
ENDCHAR

STARTCHAR underscore
ENCODING 95
SWIDTH 500 0
DWIDTH 9 0
BBX 9 1 0 -2
BITMAP
FF80
ENDCHAR

STARTCHAR quoteleft
ENCODING 96
SWIDTH 320 0
DWIDTH 5 0
BBX 4 6 3 7
BITMAP
30
60
C0
E0
E0
C0
ENDCHAR

STARTCHAR a
ENCODING 97
SWIDTH 680 0
DWIDTH 11 0
BBX 10 8 2 0
BITMAP
0EC0
3FC0
71C0
E380
E380
E700
FF80
7980
ENDCHAR

STARTCHAR b
ENCODING 98
SWIDTH 600 0
DWIDTH 10 0
BBX 10 13 1 0
BITMAP
1800
7800
7800
3800
3800
7780
7FC0
71C0
71C0
E1C0
E380
FF80
EE00
ENDCHAR

STARTCHAR c
ENCODING 99
SWIDTH 560 0
DWIDTH 10 0
BBX 9 8 2 0
BITMAP
0F00
3F80
7180
E000
E000
E300
FF00
7E00
ENDCHAR

STARTCHAR d
ENCODING 100
SWIDTH 680 0
DWIDTH 12 0
BBX 12 13 2 0
BITMAP
0030
00F0
00F0
0070
00E0
1EE0
7FE0
73C0
E1C0
E1C0
E380
FFC0
7DC0
ENDCHAR

STARTCHAR e
ENCODING 101
SWIDTH 560 0
DWIDTH 10 0
BBX 9 8 2 0
BITMAP
0F00
3F80
7180
E700
FC00
E200
FF00
7E00
ENDCHAR

STARTCHAR f
ENCODING 102
SWIDTH 420 0
DWIDTH 7 0
BBX 12 17 -1 -4
BITMAP
01E0
03F0
03B0
0700
1FC0
1FC0
0700
0700
0E00
0E00
0E00
0E00
0C00
1C00
DC00
F800
7000
ENDCHAR

STARTCHAR g
ENCODING 103
SWIDTH 620 0
DWIDTH 11 0
BBX 11 12 1 -4
BITMAP
0F60
3FE0
38E0
70E0
71C0
73C0
7FC0
3D80
0380
C700
FF00
7C00
ENDCHAR

STARTCHAR h
ENCODING 104
SWIDTH 700 0
DWIDTH 12 0
BBX 10 13 2 0
BITMAP
1800
7800
7800
3800
3800
7780
7DC0
79C0
71C0
E380
E380
E3C0
E1C0
ENDCHAR

STARTCHAR i
ENCODING 105
SWIDTH 380 0
DWIDTH 6 0
BBX 5 13 2 0
BITMAP
38
38
38
00
00
30
F0
F0
60
E0
E0
F8
78
ENDCHAR

STARTCHAR j
ENCODING 106
SWIDTH 320 0
DWIDTH 5 0
BBX 10 17 -3 -4
BITMAP
01C0
01C0
01C0
0000
0000
0180
0780
0780
0380
0700
0700
0700
0700
0E00
CE00
FC00
7800
ENDCHAR

STARTCHAR k
ENCODING 107
SWIDTH 700 0
DWIDTH 12 0
BBX 11 13 2 0
BITMAP
1800
7800
7800
3800
3800
71C0
73E0
7640
7E00
7E00
F740
E7E0
E3C0
ENDCHAR

STARTCHAR l
ENCODING 108
SWIDTH 380 0
DWIDTH 7 0
BBX 6 13 2 0
BITMAP
18
78
78
38
70
70
70
70
E0
E0
EC
FC
78
ENDCHAR

STARTCHAR m
ENCODING 109
SWIDTH 960 0
DWIDTH 16 0
BBX 15 8 2 0
BITMAP
37B8
FFFC
FBDC
739C
73B8
E738
E73E
E71E
ENDCHAR

STARTCHAR n
ENCODING 110
SWIDTH 680 0
DWIDTH 12 0
BBX 10 8 2 0
BITMAP
3780
FDC0
F9C0
71C0
7380
E380
E3C0
E1C0
ENDCHAR

STARTCHAR o
ENCODING 111
SWIDTH 600 0
DWIDTH 10 0
BBX 9 8 2 0
BITMAP
1E00
7F00
7380
E380
E380
E700
7F00
3C00
ENDCHAR

STARTCHAR p
ENCODING 112
SWIDTH 660 0
DWIDTH 11 0
BBX 11 12 1 -4
BITMAP
1BC0
7FE0
7CE0
38E0
38E0
39C0
7FC0
7700
7000
7000
F800
F800
ENDCHAR

STARTCHAR q
ENCODING 113
SWIDTH 620 0
DWIDTH 11 0
BBX 10 12 2 -4
BITMAP
1EC0
7FC0
71C0
E1C0
E380
E380
FF80
7B80
0700
0700
0F80
0F80
ENDCHAR

STARTCHAR r
ENCODING 114
SWIDTH 500 0
DWIDTH 9 0
BBX 8 8 2 0
BITMAP
37
FF
F1
70
70
E0
E0
E0
ENDCHAR

STARTCHAR s
ENCODING 115
SWIDTH 540 0
DWIDTH 9 0
BBX 8 8 2 0
BITMAP
3E
7F
73
3C
1F
C7
FF
7E
ENDCHAR

STARTCHAR t
ENCODING 116
SWIDTH 440 0
DWIDTH 7 0
BBX 6 11 2 0
BITMAP
30
30
70
FC
FC
70
70
E0
EC
FC
78
ENDCHAR

STARTCHAR u
ENCODING 117
SWIDTH 680 0
DWIDTH 12 0
BBX 10 8 2 0
BITMAP
31C0
F1C0
F1C0
71C0
E380
E380
FFC0
7DC0
ENDCHAR

STARTCHAR v
ENCODING 118
SWIDTH 540 0
DWIDTH 9 0
BBX 8 8 2 0
BITMAP
32
F7
F3
63
E6
EE
FC
78
ENDCHAR

STARTCHAR w
ENCODING 119
SWIDTH 860 0
DWIDTH 15 0
BBX 14 8 2 0
BITMAP
31C8
F1DC
F38C
638C
E798
EF38
FBF0
71C0
ENDCHAR

STARTCHAR x
ENCODING 120
SWIDTH 620 0
DWIDTH 11 0
BBX 11 8 0 0
BITMAP
1860
38E0
1D80
0F00
0F00
1B80
F3E0
E1C0
ENDCHAR

STARTCHAR y
ENCODING 121
SWIDTH 600 0
DWIDTH 10 0
BBX 10 12 1 -4
BITMAP
19C0
79C0
79C0
31C0
7380
7380
7F80
3B80
0300
C700
FE00
7800
ENDCHAR

STARTCHAR z
ENCODING 122
SWIDTH 560 0
DWIDTH 10 0
BBX 9 8 2 0
BITMAP
3D80
7F80
6700
1E00
3C00
7180
FF80
DF00
ENDCHAR

STARTCHAR braceleft
ENCODING 123
SWIDTH 300 0
DWIDTH 5 0
BBX 6 17 0 -4
BITMAP
0C
10
30
30
30
30
30
60
80
40
60
60
60
60
60
20
18
ENDCHAR

STARTCHAR bar
ENCODING 124
SWIDTH 620 0
DWIDTH 11 0
BBX 2 17 6 -4
BITMAP
C0
C0
C0
C0
C0
C0
C0
C0
C0
C0
C0
C0
C0
C0
C0
C0
C0
ENDCHAR

STARTCHAR braceright
ENCODING 125
SWIDTH 300 0
DWIDTH 5 0
BBX 6 17 1 -4
BITMAP
60
10
18
18
18
18
18
08
04
18
30
30
30
30
30
20
C0
ENDCHAR

STARTCHAR asciitilde
ENCODING 126
SWIDTH 620 0
DWIDTH 10 0
BBX 8 3 1 4
BITMAP
71
FF
8E
ENDCHAR

STARTCHAR space
ENCODING 160
SWIDTH 340 0
DWIDTH 7 0
BBX 0 0 0 0
BITMAP
ENDCHAR

STARTCHAR Aogonek
ENCODING 161
SWIDTH 720 0
DWIDTH 12 0
BBX 13 15 0 -3
BITMAP
0380
0380
0780
0D80
0DC0
19C0
1FC0
3FC0
30E0
60E0
F1F0
F1F0
0060
0060
0038
ENDCHAR

STARTCHAR afii240
ENCODING 162
SWIDTH 500 0
DWIDTH 10 0
BBX 9 8 2 0
BITMAP
3380
F380
F700
7E00
7C00
EE00
E700
E700
ENDCHAR

STARTCHAR Rcommaaccent
ENCODING 163
SWIDTH 740 0
DWIDTH 13 0
BBX 12 17 1 -5
BITMAP
3FE0
3FF0
1C70
1C70
38F0
3FE0
3F80
3B80
73C0
71C0
F8F0
F8F0
0000
0600
0600
0400
0800
ENDCHAR

STARTCHAR currency
ENCODING 164
SWIDTH 680 0
DWIDTH 12 0
BBX 8 8 3 2
BITMAP
DB
FF
42
C3
C3
42
FF
DB
ENDCHAR

STARTCHAR Itilde
ENCODING 165
SWIDTH 380 0
DWIDTH 7 0
BBX 9 15 1 0
BITMAP
0E80
1700
0000
3E00
3E00
1C00
1C00
3800
3800
3800
3800
7000
7000
F800
F800
ENDCHAR

STARTCHAR Lcommaaccent
ENCODING 166
SWIDTH 640 0
DWIDTH 11 0
BBX 11 17 1 -5
BITMAP
3E00
3E00
1C00
1C00
3800
3800
3800
3800
7060
70E0
FFE0
FFC0
0000
0C00
0C00
0800
1000
ENDCHAR

STARTCHAR section
ENCODING 167
SWIDTH 620 0
DWIDTH 11 0
BBX 12 15 0 -3
BITMAP
07C0
1FE0
1870
1C60
0F80
1FE0
31E0
3860
3EE0
1F80
07C0
E1C0
F1C0
7F80
1E00
ENDCHAR

STARTCHAR hungarumlaut
ENCODING 168
SWIDTH 560 0
DWIDTH 10 0
BBX 9 2 2 10
BITMAP
7380
E700
ENDCHAR

STARTCHAR Scaron
ENCODING 169
SWIDTH 700 0
DWIDTH 12 0
BBX 12 15 1 0
BITMAP
0EE0
07C0
0000
0FB0
3FF0
7860
7060
7C00
3F80
0FC0
01E0
60E0
61E0
FFC0
DF00
ENDCHAR

STARTCHAR Emacron
ENCODING 170
SWIDTH 720 0
DWIDTH 12 0
BBX 13 15 1 0
BITMAP
07E0
07E0
0000
3FF0
3FF8
1C38
1C98
3980
3F80
3F00
3900
7030
7070
FFF0
FFE0
ENDCHAR

STARTCHAR Gcommaaccent
ENCODING 171
SWIDTH 760 0
DWIDTH 13 0
BBX 12 17 2 -5
BITMAP
0F60
3FE0
7860
7020
7000
E1F0
E1F0
E0E0
E0C0
71C0
7FC0
1EC0
0000
0C00
0C00
0800
1000
ENDCHAR

STARTCHAR afii237
ENCODING 172
SWIDTH 611 0
DWIDTH 12 0
BBX 13 12 1 0
BITMAP
7FF0
7FF0
E738
C718
0E00
3F80
3F80
0E00
1C00
1C00
3E00
3E00
ENDCHAR

STARTCHAR hyphen
ENCODING 173
SWIDTH 280 0
DWIDTH 5 0
BBX 4 2 1 3
BITMAP
F0
F0
ENDCHAR

STARTCHAR Zcaron
ENCODING 174
SWIDTH 680 0
DWIDTH 12 0
BBX 12 15 1 0
BITMAP
0770
03E0
0000
1FF0
3FF0
38E0
31C0
0380
0700
0E00
1C00
3860
70E0
FFE0
FFC0
ENDCHAR

STARTCHAR macron
ENCODING 175
SWIDTH 480 0
DWIDTH 8 0
BBX 7 2 3 9
BITMAP
FE
FE
ENDCHAR

STARTCHAR degree
ENCODING 176
SWIDTH 400 0
DWIDTH 7 0
BBX 5 5 3 7
BITMAP
70
D8
88
D8
70
ENDCHAR

STARTCHAR aogonek
ENCODING 177
SWIDTH 680 0
DWIDTH 11 0
BBX 11 11 2 -3
BITMAP
0EC0
3FC0
71C0
E380
E380
E700
FF80
7980
0180
0180
00E0
ENDCHAR

STARTCHAR ogonek
ENCODING 178
SWIDTH 320 0
DWIDTH 5 0
BBX 3 3 0 -3
BITMAP
60
C0
E0
ENDCHAR

STARTCHAR rcommaaccent
ENCODING 179
SWIDTH 500 0
DWIDTH 9 0
BBX 8 13 2 -5
BITMAP
37
FF
F1
70
70
E0
E0
E0
00
60
60
40
80
ENDCHAR

STARTCHAR acute
ENCODING 180
SWIDTH 340 0
DWIDTH 6 0
BBX 4 2 4 10
BITMAP
70
E0
ENDCHAR

STARTCHAR itilde
ENCODING 181
SWIDTH 380 0
DWIDTH 6 0
BBX 6 11 2 0
BITMAP
74
B8
00
30
F0
F0
70
E0
E0
F8
78
ENDCHAR

STARTCHAR lcommaaccent
ENCODING 182
SWIDTH 380 0
DWIDTH 7 0
BBX 6 18 2 -5
BITMAP
18
78
78
38
70
70
70
70
E0
E0
EC
FC
78
00
60
60
40
80
ENDCHAR

STARTCHAR caron
ENCODING 183
SWIDTH 480 0
DWIDTH 8 0
BBX 7 2 2 10
BITMAP
EE
7C
ENDCHAR

STARTCHAR commaaccent
ENCODING 184
SWIDTH 333 0
DWIDTH 6 0
BBX 3 4 1 -5
BITMAP
60
60
40
80
ENDCHAR

STARTCHAR scaron
ENCODING 185
SWIDTH 540 0
DWIDTH 9 0
BBX 9 13 1 0
BITMAP
1080
1F80
0F00
0000
0000
3F00
7F80
7180
3E00
1F00
C700
FF00
7E00
ENDCHAR

STARTCHAR emacron
ENCODING 186
SWIDTH 560 0
DWIDTH 10 0
BBX 9 11 2 0
BITMAP
1F00
1F00
0000
0F00
3F80
7180
E700
FC00
E200
FF00
7E00
ENDCHAR

STARTCHAR gcommaaccent
ENCODING 187
SWIDTH 620 0
DWIDTH 11 0
BBX 11 17 1 -4
BITMAP
0080
0100
0300
0300
0000
0F60
3FE0
38E0
70E0
71C0
73C0
7FC0
3D80
0380
C700
FF00
7C00
ENDCHAR

STARTCHAR afii253
ENCODING 188
SWIDTH 278 0
DWIDTH 7 0
BBX 7 11 1 0
BITMAP
18
18
38
7E
7E
38
FE
FE
70
7E
3C
ENDCHAR

STARTCHAR afii238
ENCODING 189
SWIDTH 775 0
DWIDTH 14 0
BBX 13 12 1 0
BITMAP
3DE0
3FF0
1E38
1C38
3838
3838
3870
3870
7070
70E0
FBE0
FBC0
ENDCHAR

STARTCHAR zcaron
ENCODING 190
SWIDTH 560 0
DWIDTH 10 0
BBX 9 11 2 0
BITMAP
3B80
1F00
0000
3D80
7F80
6700
1E00
3C00
7180
FF80
DF00
ENDCHAR

STARTCHAR afii254
ENCODING 191
SWIDTH 477 0
DWIDTH 12 0
BBX 10 11 2 -3
BITMAP
3780
FDC0
F9C0
71C0
7380
E380
E380
E700
0700
0700
1E00
ENDCHAR

STARTCHAR Amacron
ENCODING 192
SWIDTH 720 0
DWIDTH 12 0
BBX 12 15 0 0
BITMAP
07E0
07E0
0000
0380
0380
0780
0D80
0DC0
19C0
1FC0
3FC0
30E0
60E0
F1F0
F1F0
ENDCHAR

STARTCHAR Aacute
ENCODING 193
SWIDTH 720 0
DWIDTH 12 0
BBX 12 15 0 0
BITMAP
01C0
0380
0000
0380
0380
0780
0D80
0DC0
19C0
1FC0
3FC0
30E0
60E0
F1F0
F1F0
ENDCHAR

STARTCHAR Acircumflex
ENCODING 194
SWIDTH 720 0
DWIDTH 12 0
BBX 12 15 0 0
BITMAP
07C0
0EE0
0000
0380
0380
0780
0D80
0DC0
19C0
1FC0
3FC0
30E0
60E0
F1F0
F1F0
ENDCHAR

STARTCHAR Atilde
ENCODING 195
SWIDTH 720 0
DWIDTH 12 0
BBX 12 15 0 0
BITMAP
07A0
0BC0
0000
0380
0380
0780
0D80
0DC0
19C0
1FC0
3FC0
30E0
60E0
F1F0
F1F0
ENDCHAR

STARTCHAR Adieresis
ENCODING 196
SWIDTH 720 0
DWIDTH 12 0
BBX 12 15 0 0
BITMAP
0660
0660
0000
0380
0380
0780
0D80
0DC0
19C0
1FC0
3FC0
30E0
60E0
F1F0
F1F0
ENDCHAR

STARTCHAR Aring
ENCODING 197
SWIDTH 720 0
DWIDTH 12 0
BBX 12 16 0 0
BITMAP
0380
06C0
0440
06C0
0380
0380
0780
0D80
0DC0
19C0
1FC0
3FC0
30E0
60E0
F1F0
F1F0
ENDCHAR

STARTCHAR AE
ENCODING 198
SWIDTH 1140 0
DWIDTH 19 0
BBX 21 12 0 0
BITMAP
07FFF0
07FFF8
039C38
031C98
073980
0E3F80
0FFF80
1FF900
387030
307070
F8FFF0
F8FFE0
ENDCHAR

STARTCHAR Iogonek
ENCODING 199
SWIDTH 380 0
DWIDTH 7 0
BBX 7 15 1 -3
BITMAP
3E
3E
1C
1C
38
38
38
38
70
70
F8
F8
30
30
1C
ENDCHAR

STARTCHAR Ccaron
ENCODING 200
SWIDTH 700 0
DWIDTH 12 0
BBX 11 15 1 0
BITMAP
0EE0
07C0
0000
0F60
3FE0
78E0
7060
7020
E000
E000
E000
E0C0
71C0
7F80
1E00
ENDCHAR

STARTCHAR Eacute
ENCODING 201
SWIDTH 720 0
DWIDTH 12 0
BBX 13 15 1 0
BITMAP
00E0
01C0
0000
3FF0
3FF8
1C38
1C98
3980
3F80
3F00
3900
7030
7070
FFF0
FFE0
ENDCHAR

STARTCHAR Eogonek
ENCODING 202
SWIDTH 720 0
DWIDTH 12 0
BBX 13 15 1 -3
BITMAP
3FF0
3FF8
1C38
1C98
3980
3F80
3F00
3900
7030
7070
FFF0
FFE0
00C0
00C0
0070
ENDCHAR

STARTCHAR Edieresis
ENCODING 203
SWIDTH 720 0
DWIDTH 12 0
BBX 13 15 1 0
BITMAP
0330
0330
0000
3FF0
3FF8
1C38
1C98
3980
3F80
3F00
3900
7030
7070
FFF0
FFE0
ENDCHAR

STARTCHAR Edotaccent
ENCODING 204
SWIDTH 720 0
DWIDTH 12 0
BBX 13 15 1 0
BITMAP
01C0
0380
0000
3FF0
3FF8
1C38
1C98
3980
3F80
3F00
3900
7030
7070
FFF0
FFE0
ENDCHAR

STARTCHAR Iacute
ENCODING 205
SWIDTH 380 0
DWIDTH 7 0
BBX 8 15 1 0
BITMAP
07
0E
00
3E
3E
1C
1C
38
38
38
38
70
70
F8
F8
ENDCHAR

STARTCHAR Icircumflex
ENCODING 206
SWIDTH 380 0
DWIDTH 7 0
BBX 9 15 1 0
BITMAP
1F00
3B80
0000
3E00
3E00
1C00
1C00
3800
3800
3800
3800
7000
7000
F800
F800
ENDCHAR

STARTCHAR Imacron
ENCODING 207
SWIDTH 380 0
DWIDTH 7 0
BBX 8 15 1 0
BITMAP
1F
1F
00
3E
3E
1C
1C
38
38
38
38
70
70
F8
F8
ENDCHAR

STARTCHAR Eth
ENCODING 208
SWIDTH 760 0
DWIDTH 13 0
BBX 13 12 1 0
BITMAP
3FC0
3FF0
1C78
1C38
3838
7F38
7F38
3838
7070
70F0
FFE0
FF80
ENDCHAR

STARTCHAR Ncommaaccent
ENCODING 209
SWIDTH 740 0
DWIDTH 13 0
BBX 13 17 1 -5
BITMAP
3E78
3E78
1E30
1F30
3760
33E0
33E0
33E0
61E0
61C0
F0C0
F0C0
0000
0600
0600
0400
0800
ENDCHAR

STARTCHAR Omacron
ENCODING 210
SWIDTH 760 0
DWIDTH 13 0
BBX 12 15 2 0
BITMAP
0FC0
0FC0
0000
0F80
3FC0
78E0
7060
F070
E070
E070
E0F0
60E0
71E0
3FC0
1F00
ENDCHAR

STARTCHAR Kcommaaccent
ENCODING 211
SWIDTH 780 0
DWIDTH 13 0
BBX 14 17 1 -5
BITMAP
3EFC
3EFC
1C70
1CE0
3980
3B80
3FC0
39C0
70E0
70E0
F9F8
F9F8
0000
0C00
0C00
0800
1000
ENDCHAR

STARTCHAR Ocircumflex
ENCODING 212
SWIDTH 760 0
DWIDTH 13 0
BBX 12 15 2 0
BITMAP
0F80
1DC0
0000
0F80
3FC0
78E0
7060
F070
E070
E070
E0F0
60E0
71E0
3FC0
1F00
ENDCHAR

STARTCHAR Otilde
ENCODING 213
SWIDTH 760 0
DWIDTH 13 0
BBX 12 15 2 0
BITMAP
0F40
1780
0000
0F80
3FC0
78E0
7060
F070
E070
E070
E0F0
60E0
71E0
3FC0
1F00
ENDCHAR

STARTCHAR Odieresis
ENCODING 214
SWIDTH 760 0
DWIDTH 13 0
BBX 12 15 2 0
BITMAP
0CC0
0CC0
0000
0F80
3FC0
78E0
7060
F070
E070
E070
E0F0
60E0
71E0
3FC0
1F00
ENDCHAR

STARTCHAR multiply
ENCODING 215
SWIDTH 600 0
DWIDTH 10 0
BBX 7 8 3 2
BITMAP
42
C6
6C
38
38
6C
C6
82
ENDCHAR

STARTCHAR Oslash
ENCODING 216
SWIDTH 760 0
DWIDTH 13 0
BBX 14 12 1 0
BITMAP
07C4
1FEC
3C30
3878
78F8
71B8
7738
7C78
7870
38F0
DFE0
8F80
ENDCHAR

STARTCHAR Uogonek
ENCODING 217
SWIDTH 740 0
DWIDTH 13 0
BBX 13 15 1 -3
BITMAP
7C78
7C78
3830
3830
7030
7060
7060
E060
E0C0
E1C0
7F80
3E00
0C00
0C00
0700
ENDCHAR

STARTCHAR Uacute
ENCODING 218
SWIDTH 740 0
DWIDTH 13 0
BBX 13 15 1 0
BITMAP
01C0
0380
0000
7C78
7C78
3830
3830
7030
7060
7060
E060
E0C0
E1C0
7F80
3E00
ENDCHAR

STARTCHAR Ucircumflex
ENCODING 219
SWIDTH 740 0
DWIDTH 13 0
BBX 13 15 1 0
BITMAP
03E0
0770
0000
7C78
7C78
3830
3830
7030
7060
7060
E060
E0C0
E1C0
7F80
3E00
ENDCHAR

STARTCHAR Udieresis
ENCODING 220
SWIDTH 740 0
DWIDTH 13 0
BBX 13 15 1 0
BITMAP
0660
0660
0000
7C78
7C78
3830
3830
7030
7060
7060
E060
E0C0
E1C0
7F80
3E00
ENDCHAR

STARTCHAR Utilde
ENCODING 221
SWIDTH 740 0
DWIDTH 13 0
BBX 13 15 1 0
BITMAP
07A0
0BC0
0000
7C78
7C78
3830
3830
7030
7060
7060
E060
E0C0
E1C0
7F80
3E00
ENDCHAR

STARTCHAR Umacron
ENCODING 222
SWIDTH 740 0
DWIDTH 13 0
BBX 13 15 1 0
BITMAP
07E0
07E0
0000
7C78
7C78
3830
3830
7030
7060
7060
E060
E0C0
E1C0
7F80
3E00
ENDCHAR

STARTCHAR germandbls
ENCODING 223
SWIDTH 660 0
DWIDTH 11 0
BBX 14 16 -2 -4
BITMAP
00F8
01FC
038C
039C
0768
0F70
0778
073C
061C
07CC
0EFC
0E70
0E00
EC00
F800
7000
ENDCHAR

STARTCHAR amacron
ENCODING 224
SWIDTH 680 0
DWIDTH 11 0
BBX 10 11 2 0
BITMAP
0FC0
0FC0
0000
0EC0
3FC0
71C0
E380
E380
E700
FF80
7980
ENDCHAR

STARTCHAR aacute
ENCODING 225
SWIDTH 680 0
DWIDTH 11 0
BBX 10 11 2 0
BITMAP
0380
0700
0000
0EC0
3FC0
71C0
E380
E380
E700
FF80
7980
ENDCHAR

STARTCHAR acircumflex
ENCODING 226
SWIDTH 680 0
DWIDTH 11 0
BBX 11 11 2 0
BITMAP
07C0
0EE0
0000
0EC0
3FC0
71C0
E380
E380
E700
FF80
7980
ENDCHAR

STARTCHAR atilde
ENCODING 227
SWIDTH 680 0
DWIDTH 11 0
BBX 11 11 2 0
BITMAP
07A0
0BC0
0000
0EC0
3FC0
71C0
E380
E380
E700
FF80
7980
ENDCHAR

STARTCHAR adieresis
ENCODING 228
SWIDTH 680 0
DWIDTH 11 0
BBX 10 11 2 0
BITMAP
0CC0
0CC0
0000
0EC0
3FC0
71C0
E380
E380
E700
FF80
7980
ENDCHAR

STARTCHAR aring
ENCODING 229
SWIDTH 680 0
DWIDTH 11 0
BBX 10 12 2 0
BITMAP
0600
0900
0900
0600
0EC0
3FC0
71C0
E380
E380
E700
FF80
7980
ENDCHAR

STARTCHAR ae
ENCODING 230
SWIDTH 880 0
DWIDTH 15 0
BBX 14 8 1 0
BITMAP
1E78
7FFC
63CC
1F98
73F0
E788
FFFC
79F8
ENDCHAR

STARTCHAR iogonek
ENCODING 231
SWIDTH 380 0
DWIDTH 6 0
BBX 6 15 2 -3
BITMAP
38
38
38
00
30
F0
F0
70
E0
E0
F8
78
30
30
1C
ENDCHAR

STARTCHAR ccaron
ENCODING 232
SWIDTH 560 0
DWIDTH 10 0
BBX 9 11 2 0
BITMAP
3B80
1F00
0000
0F00
3F80
7180
E000
E000
E300
FF00
7E00
ENDCHAR

STARTCHAR eacute
ENCODING 233
SWIDTH 560 0
DWIDTH 10 0
BBX 9 11 2 0
BITMAP
0380
0700
0000
0F00
3F80
7180
E700
FC00
E200
FF00
7E00
ENDCHAR

STARTCHAR eogonek
ENCODING 234
SWIDTH 560 0
DWIDTH 10 0
BBX 9 11 2 -3
BITMAP
0F00
3F80
7180
E700
FC00
E200
FF00
7E00
0C00
0C00
0700
ENDCHAR

STARTCHAR edieresis
ENCODING 235
SWIDTH 560 0
DWIDTH 10 0
BBX 9 11 2 0
BITMAP
1980
1980
0000
0F00
3F80
7180
E700
FC00
E200
FF00
7E00
ENDCHAR

STARTCHAR edotaccent
ENCODING 236
SWIDTH 560 0
DWIDTH 10 0
BBX 9 11 2 0
BITMAP
0380
0700
0000
0F00
3F80
7180
E700
FC00
E200
FF00
7E00
ENDCHAR

STARTCHAR iacute
ENCODING 237
SWIDTH 380 0
DWIDTH 6 0
BBX 5 11 2 0
BITMAP
38
70
00
30
F0
F0
60
E0
E0
F8
78
ENDCHAR

STARTCHAR icircumflex
ENCODING 238
SWIDTH 380 0
DWIDTH 6 0
BBX 6 11 2 0
BITMAP
38
6C
00
30
F0
F0
60
E0
E0
F8
78
ENDCHAR

STARTCHAR imacron
ENCODING 239
SWIDTH 380 0
DWIDTH 6 0
BBX 5 11 2 0
BITMAP
78
78
00
30
F0
F0
60
E0
E0
F8
78
ENDCHAR

STARTCHAR dcroat
ENCODING 240
SWIDTH 680 0
DWIDTH 12 0
BBX 13 13 2 0
BITMAP
0030
01F8
01F8
0070
00E0
1EE0
7FE0
73C0
E1C0
E1C0
E380
FFC0
7DC0
ENDCHAR

STARTCHAR ncommaaccent
ENCODING 241
SWIDTH 680 0
DWIDTH 12 0
BBX 10 13 2 -5
BITMAP
3780
FDC0
F9C0
71C0
7380
E380
E3C0
E1C0
0000
1800
1800
1000
2000
ENDCHAR

STARTCHAR omacron
ENCODING 242
SWIDTH 600 0
DWIDTH 10 0
BBX 9 11 2 0
BITMAP
1F00
1F00
0000
1E00
7F00
7380
E380
E380
E700
7F00
3C00
ENDCHAR

STARTCHAR kcommaaccent
ENCODING 243
SWIDTH 700 0
DWIDTH 12 0
BBX 11 18 2 -5
BITMAP
1800
7800
7800
3800
3800
71C0
73E0
7640
7E00
7E00
F740
E7E0
E3C0
0000
0C00
0C00
0800
1000
ENDCHAR

STARTCHAR ocircumflex
ENCODING 244
SWIDTH 600 0
DWIDTH 10 0
BBX 9 11 2 0
BITMAP
1F00
3B80
0000
1E00
7F00
7380
E380
E380
E700
7F00
3C00
ENDCHAR

STARTCHAR otilde
ENCODING 245
SWIDTH 600 0
DWIDTH 10 0
BBX 9 11 2 0
BITMAP
1D00
2E00
0000
1E00
7F00
7380
E380
E380
E700
7F00
3C00
ENDCHAR

STARTCHAR odieresis
ENCODING 246
SWIDTH 600 0
DWIDTH 10 0
BBX 9 11 2 0
BITMAP
1980
1980
0000
1E00
7F00
7380
E380
E380
E700
7F00
3C00
ENDCHAR

STARTCHAR divide
ENCODING 247
SWIDTH 600 0
DWIDTH 10 0
BBX 8 8 2 2
BITMAP
18
18
00
FF
FF
00
18
18
ENDCHAR

STARTCHAR oslash
ENCODING 248
SWIDTH 600 0
DWIDTH 10 0
BBX 9 8 2 0
BITMAP
1F00
7F00
7780
EF80
FB80
F700
7F00
7C00
ENDCHAR

STARTCHAR uogonek
ENCODING 249
SWIDTH 680 0
DWIDTH 12 0
BBX 11 11 2 -3
BITMAP
31C0
F1C0
F1C0
71C0
E380
E380
FFC0
7DC0
0180
0180
00E0
ENDCHAR

STARTCHAR uacute
ENCODING 250
SWIDTH 680 0
DWIDTH 12 0
BBX 10 11 2 0
BITMAP
0700
0E00
0000
31C0
F1C0
F1C0
71C0
E380
E380
FFC0
7DC0
ENDCHAR

STARTCHAR ucircumflex
ENCODING 251
SWIDTH 680 0
DWIDTH 12 0
BBX 10 11 2 0
BITMAP
0F80
1DC0
0000
31C0
F1C0
F1C0
71C0
E380
E380
FFC0
7DC0
ENDCHAR

STARTCHAR udieresis
ENCODING 252
SWIDTH 680 0
DWIDTH 12 0
BBX 10 11 2 0
BITMAP
1980
1980
0000
31C0
F1C0
F1C0
71C0
E380
E380
FFC0
7DC0
ENDCHAR

STARTCHAR utilde
ENCODING 253
SWIDTH 680 0
DWIDTH 12 0
BBX 10 11 2 0
BITMAP
0E80
1700
0000
31C0
F1C0
F1C0
71C0
E380
E380
FFC0
7DC0
ENDCHAR

STARTCHAR umacron
ENCODING 254
SWIDTH 680 0
DWIDTH 12 0
BBX 10 11 2 0
BITMAP
0F80
0F80
0000
31C0
F1C0
F1C0
71C0
E380
E380
FFC0
7DC0
ENDCHAR

STARTCHAR dotaccent
ENCODING 255
SWIDTH 380 0
DWIDTH 6 0
BBX 2 2 4 9
BITMAP
C0
C0
ENDCHAR
ENDFONT
